<svg version="1.1" id="Layer_1" xmlns="http://www.w3.org/2000/svg" xmlns:xlink="http://www.w3.org/1999/xlink" x="0px" y="0px" viewBox="0 0 117 24" style="enable-background:new 0 0 117 24;" xml:space="preserve">
 <style type="text/css">
  .st0{fill:#4E8416;}
 </style>
 <g>
  <path class="st0" d="M32.7,5.7C32.3,5.7,32,6,32,6.4v13.7c-1,0.2-2.1,0.4-3.2,0.4c-2.4,0-3.2-0.9-3.2-3.5V6.4
		c0-0.4-0.3-0.7-0.6-0.7h-3.6V17c0,5.3,2.8,7,7.3,7c3.6,0,7.2-1,7.5-1.1V5.7H32.7z M87.8,23.8c0.3,0,0.7-0.3,0.7-0.7V9.3
		c1-0.2,2.1-0.4,3.2-0.4c2.4,0,3.2,0.9,3.2,3.5v10.7c0,0.4,0.3,0.7,0.6,0.7h3.6V12.4c0-5.3-2.8-7-7.3-7c-3.6,0-7.2,1-7.5,1.1v17.3
		H87.8z M73.4,5.4c-4.7,0-7.6,2.5-7.6,8v2.7c0,6,3.2,8,6.6,8c1.7,0,3.5-1.2,4-1.9v1.1c0,0.3,0.3,0.6,0.6,0.6c0,0,3.5,0,3.6,0V6.4
		C80.7,6.4,77.2,5.4,73.4,5.4z M76.5,19.4c-0.8,0.7-1.4,1.1-3.1,1.1C71,20.6,70,19.1,70,16v-2.5C70,10,71.3,9,73.4,9
		c1.7,0,2.7,0.1,3.1,0.2V19.4z M109.7,5.4c-4.7,0-7.6,2.5-7.6,8v2.7c0,6,3.2,8,6.7,8c1.7,0,3.5-1.2,4-1.9v1.1c0,0.3,0.3,0.6,0.6,0.6
		c0,0,3.5,0,3.6,0V6.4C117,6.4,113.5,5.4,109.7,5.4z M112.8,19.4c-0.8,0.7-1.4,1.1-3.1,1.1c-2.4,0-3.4-1.4-3.4-4.5v-2.5
		c0-3.6,1.3-4.5,3.4-4.5c1.7,0,2.7,0.1,3.1,0.2V19.4z M0,23.8c0.6,0,3.8,0,3.8,0c0.3,0,0.6-0.3,0.6-0.6v-10h7c1.2,0,2,0.9,2,1.9v8.1
		c0,0.3,0.3,0.6,0.6,0.6c0,0,3.6,0,3.8,0c0,0,0-23.6,0-23.8h-3.8c-0.3,0-0.6,0.3-0.6,0.6v9H6.2c-1,0-1.7-0.8-1.7-1.7V0.6
		C4.4,0.4,4.2,0,3.8,0H0C0,0.2,0,23.8,0,23.8z M56.3,5.4c-2,0-3.9,0.8-4.8,1.4c-1.3-1-3.1-1.4-5.3-1.4c-3.3,0-6.1,1-6.5,1.2v17.3
		h3.6c0.4,0,0.6-0.3,0.6-0.7V9.3C44.8,9.1,45.5,9,46.1,9c2.5,0,3.1,1,3.1,3.5v10.7c0,0.3,0.2,0.7,0.6,0.7h3c0.4,0,0.6-0.3,0.6-0.7
		V9.8C54.1,9.3,55,9,55.9,9c1.9,0,2.7,0.9,2.7,3.2v11c0,0.3,0.2,0.7,0.6,0.7c0,0,3.3,0,3.6,0V11.6C62.9,7,60,5.4,56.3,5.4z">
  </path>
 </g>
</svg>